<?xml version="1.0" encoding="UTF-8"?><svg id="Layer_2" xmlns="http://www.w3.org/2000/svg" viewBox="0 0 286.33 62.27"><defs><style>.cls-1{fill:#eb008b;}.cls-2{fill:#fff;}</style></defs><g id="Background"><path class="cls-1" d="M0,9.72v44.18l62.27,8.37V0L0,9.72ZM39.64,39.05l-29.89,4.6V13.75l29.89,4.66v20.63Z"/><path class="cls-2" d="M79.45,51.25h5.02v10.76h2.03v-10.76h5.01v-1.2h-12.06v1.2ZM102.84,50.05l-6.37,11.97h2.05l1.74-3.41h6.66l1.69,3.41h2.25l-6.08-11.97h-1.94ZM100.85,57.41l2.52-5c.11-.21.16-.3.29-.63.16.38.18.44.27.63l2.41,5h-5.49ZM119.12,62.01h2.03v-11.97h-2.03v11.97ZM138.19,50.41c-.91-.32-1.63-.37-2.61-.37h-4.5v11.98h2.05v-5.08h.82c1.29,0,3.14-.04,4.59-.74,1.4-.66,2.14-1.8,2.14-2.87,0-.98-.71-2.29-2.49-2.92ZM137.16,55.22c-1.03.51-2.43.45-2.99.44h-1.05s0-4.41,0-4.41h2.14c1.58,0,3.21.5,3.21,2.1,0,.79-.54,1.49-1.32,1.87ZM151.22,56.32h5.88v-1.22h-5.88v-3.86h6.75v-1.21h-8.81v11.98h8.81l.96-1.22h-7.71v-4.48ZM167.09,50.05v11.97h2.03v-11.97h-2.03Z"/><path class="cls-2" d="M95.58,37.3c-5.61-.01-8.77-3.27-8.78-7.46,0-3.97,2.94-7.31,8.26-7.32,2.86,0,4.82,1.15,5.69,1.66l.47.27v-5.82l-.24-.06c-1.69-.45-3.86-.95-6.69-.95-9.72.02-14.82,5.93-14.84,12.49.02,6.73,5.41,11.96,14.39,11.97,2.76,0,4.34-.4,5.25-.62l.12-.04.06-.1,3.52-5.54-.88.34c-2,.75-4.17,1.19-6.33,1.19ZM285.97,40.99l-8.38-11.66,8.29-11.13h-7.92l-4.18,5.9-4.11-5.9h-7.95l8.2,11.23-8.87,12.06h7.78l4.84-6.77,4.67,6.77h7.99l-.36-.5ZM217.28,23.32h7.07v18.17h7.07v-18.18h7s0-5.12,0-5.12h-21.13v5.13ZM248.83,36.37v-4.32h8.22v-5.05h-8.22v-3.72h9.59v-5.09h-16.66v23.3h15.55l.09-.13,3.75-4.99h-12.33ZM180.97,18.2h-11.17v23.3h7.07v-8.99h2.87c1.9-.04,6.21-.08,8.68-3.3.81-1.09,1.29-2.5,1.29-3.92,0-4.75-4.25-7.08-8.74-7.09ZM181.72,27.31c-.77.61-1.78.67-2.43.67h-2.42v-4.95h2.45c1.87.03,3.29.73,3.29,2.49,0,.71-.3,1.35-.89,1.8ZM118.31,17.62c-8.57.01-13.85,5.41-13.86,12.23,0,6.99,5.26,12.23,14,12.24,8.76-.02,13.63-5.94,13.65-12.36-.02-6.53-5.11-12.09-13.79-12.1ZM118.31,36.94c-4.01-.01-6.39-3.07-6.41-7.12.02-4.19,2.53-7.2,6.41-7.2,3.94,0,6.32,3.04,6.33,7.3-.02,3.32-1.96,7.03-6.33,7.03ZM156.31,18.2l-6.28,12.21-6.21-12.22h-6.95l-2.88,23.3h6.83l1.33-14.02,7.19,14.01h1.29l7.29-13.96,1.26,13.96h6.98l-2.99-23.29h-6.87ZM207.71,36.28h0s0-.02,0-.02c-1.68,1.06-3.15,1.35-5.49,1.35-1.68,0-2.85-.86-3.16-2.13-.16-.64-.16-1.35-.16-2.73v-14.39h-6.37v17.24c.04,1.46.08,3.4,1.91,4.93.92.78,2.67,1.53,5.38,1.53,1.8,0,4.15-.72,6.81-2.76l1.09-.83v3.12h6.19v-23.32h-6.19v18.01Z"/></g></svg>