<?xml version="1.0" encoding="UTF-8"?><svg id="Layer_2" xmlns="http://www.w3.org/2000/svg" viewBox="0 0 177.19 34.09"><defs><style>.cls-1{fill:#f7941d;}</style></defs><g id="Background"><path class="cls-1" d="M14.32,14.81h3.43c1.6,0,2.91-.47,3.94-1.4,1.03-.94,1.54-2.05,1.54-3.35,0-1.96-1.08-2.94-3.23-2.94h-4.02l-1.67,7.69ZM7.13.58h14.97c2.82,0,4.94.33,6.37,1,1.43.67,2.52,1.66,3.27,2.97.75,1.31,1.12,2.92,1.12,4.82,0,2.47-.67,4.67-2,6.6-1.34,1.92-3.02,3.31-5.04,4.15-2.02.84-4.83,1.26-8.41,1.26h-4.5l-2.63,12.15H0L7.13.58Z"/><polygon class="cls-1" points="67.49 .58 60.39 33.51 50.16 33.51 53.04 20.14 42.04 20.14 39.19 33.51 28.87 33.51 35.95 .58 46.2 .58 43.72 12.23 54.68 12.23 57.26 .58 67.49 .58"/><polygon class="cls-1" points="80.51 .58 73.45 33.51 63.13 33.51 70.19 .58 80.51 .58"/><path class="cls-1" d="M108.68,9.7l-9.56.51c-.21-2.83-1.79-4.24-4.74-4.24-1.2,0-2.13.26-2.77.78-.65.52-.97,1.13-.97,1.85,0,.52.26,1.02.78,1.49.52.47,1.76,1.07,3.71,1.81,2.48.96,4.49,1.87,6.04,2.72,1.55.85,2.82,1.96,3.8,3.32.98,1.36,1.48,3.06,1.48,5.1,0,1.92-.54,3.7-1.6,5.36-1.07,1.65-2.61,3.02-4.62,4.09-2.01,1.07-4.87,1.61-8.58,1.61-5.22,0-8.92-1-11.11-3.01-2.19-2.01-3.28-4.58-3.28-7.73v-.77l9.56-.65c0,2.05.45,3.5,1.36,4.34.9.85,2.16,1.27,3.76,1.27s2.84-.35,3.69-1.05c.85-.7,1.27-1.5,1.27-2.4,0-.67-.27-1.29-.81-1.86-.54-.57-1.86-1.23-3.96-2-4.82-1.74-7.87-3.34-9.14-4.81-1.28-1.47-1.91-3.24-1.91-5.31,0-1.89.53-3.62,1.58-5.18,1.06-1.56,2.59-2.77,4.6-3.63C89.25.43,91.67,0,94.48,0,103.37,0,108.11,3.23,108.68,9.7"/><path class="cls-1" d="M122.5,26.61c1.96,0,3.63-.74,4.99-2.23,1.37-1.49,2.37-3.36,3-5.63.63-2.26.94-3.88.94-4.84,0-2.12-.54-3.72-1.61-4.8-1.07-1.08-2.44-1.63-4.1-1.63-1.86,0-3.46.68-4.8,2.04-1.34,1.36-2.35,3.17-3.02,5.44-.68,2.26-1.01,4.19-1.01,5.79,0,1.68.49,3.08,1.48,4.2.99,1.11,2.36,1.67,4.11,1.67M126.85,0c5.02,0,8.7,1.35,11.06,4.04,2.35,2.69,3.53,6,3.53,9.93,0,1.51-.22,3.24-.65,5.18-.44,1.94-1.28,3.95-2.52,6.02-1.24,2.08-2.86,3.84-4.84,5.28-1.99,1.45-3.89,2.41-5.72,2.9-1.83.49-3.77.73-5.82.73-4.7,0-8.38-1.19-11.01-3.57-2.64-2.38-3.95-5.73-3.95-10.03,0-2.25.32-4.44.98-6.58.65-2.14,1.63-4.15,2.92-6.05,1.3-1.9,2.89-3.49,4.79-4.77,1.89-1.28,3.76-2.12,5.59-2.51,1.84-.39,3.72-.59,5.65-.59"/><polygon class="cls-1" points="177.19 .58 170.09 33.51 160.51 33.51 152.42 14.39 152.33 14.39 148.22 33.51 138.66 33.51 145.73 .58 155.26 .58 163.38 19.76 163.46 19.76 167.6 .58 177.19 .58"/></g></svg>